# xmcd
#
# Track frame offsets:
#	150
#	21899
#	43113
#	52019
#	72137
#	94400
#	118720
#	135796
#	152845
#	172620
#
# Disc length: 2537 seconds
#
# Revision: 0
# Processed by: cddbd v1.5.2PL0 Copyright (c) Steve Scherf et al.
# Submitted via: EZCDAudioConverter 8.0.2.1
#
DISCID=7c09e70a
DTITLE=Jarkka Rissanen and Sons of the Desert - Hybrid Soul
DYEAR=2017
DGENRE=
TTITLE0=Hipston
TTITLE1=Miss Gumbo
TTITLE2=The Fly
TTITLE3=Safari Beat
TTITLE4=Slow
TTITLE5=Big Water
TTITLE6=Uptown Rock
TTITLE7=Detroit Blues
TTITLE8=The Stone
TTITLE9=Beauty Box
EXTD=
EXTT0=
EXTT1=
EXTT2=
EXTT3=
EXTT4=
EXTT5=
EXTT6=
EXTT7=
EXTT8=
EXTT9=
PLAYORDER=
